<svg xmlns="http://www.w3.org/2000/svg" version="1.1" xmlns:xlink="http://www.w3.org/1999/xlink" xmlns:svgjs="http://svgjs.dev/svgjs" width="1500" height="1500" viewBox="0 0 1500 1500"><rect width="1500" height="1500" fill="#000000"></rect><g transform="matrix(0.6666666666666666,0,0,0.6666666666666666,249.39393939393943,596.5531140708308)"><svg viewBox="0 0 396 122" data-background-color="#2979ff" preserveAspectRatio="xMidYMid meet" height="462" width="1500" xmlns="http://www.w3.org/2000/svg" xmlns:xlink="http://www.w3.org/1999/xlink"><g id="tight-bounds" transform="matrix(1,0,0,1,0.2400000000000091,-0.21909063844594812)"><svg viewBox="0 0 395.52 122.4381812768919" height="122.4381812768919" width="395.52"><g><svg viewBox="0 0 395.52 122.4381812768919" height="122.4381812768919" width="395.52"><g><svg viewBox="0 0 664.495062045257 205.70278839071779" height="122.4381812768919" width="395.52"><g transform="matrix(1,0,0,1,268.97506204525706,50.86876562393033)"><svg viewBox="0 0 395.5199999999999 103.96525714285713" height="103.96525714285713" width="395.5199999999999"><g id="textblocktransform"><svg viewBox="0 0 395.5199999999999 103.96525714285713" height="103.96525714285713" width="395.5199999999999" id="textblock"><g><svg viewBox="0 0 395.5199999999999 103.96525714285713" height="103.96525714285713" width="395.5199999999999"><g transform="matrix(1,0,0,1,0,0)"><svg width="395.5199999999999" viewBox="1.32 -35.35 136.71 35.940000000000005" height="103.96525714285713" data-palette-color="#ffffff"><path d="M29.69-22.51L29.69-22.51Q29.69-20.14 28.98-18.31 28.27-16.48 27.04-15.1 25.81-13.72 24.15-12.78 22.49-11.84 20.59-11.24 18.7-10.64 16.67-10.36 14.65-10.08 12.7-10.06L12.7-10.06 12.7 0.34 1.32 0.34Q1.32-2.44 1.33-5.08 1.34-7.71 1.35-10.31 1.37-12.92 1.38-15.55 1.39-18.19 1.42-21L1.42-21Q1.46-23.97 1.44-26.95 1.42-29.93 1.56-32.96L1.56-32.96Q4.69-33.89 7.81-34.35 10.94-34.81 14.26-34.81L14.26-34.81Q16.14-34.81 18.02-34.51 19.9-34.2 21.62-33.54 23.34-32.89 24.82-31.9 26.29-30.91 27.37-29.54 28.44-28.17 29.06-26.42 29.69-24.66 29.69-22.51ZM18.85-21.68L18.85-21.68Q18.85-23.27 17.88-24.16 16.92-25.05 15.38-25.05L15.38-25.05Q14.87-25.05 14.32-24.96 13.77-24.88 13.28-24.76L13.28-24.76 12.99-17.63Q13.33-17.58 13.65-17.58 13.96-17.58 14.31-17.58L14.31-17.58Q15.19-17.58 16-17.87 16.82-18.16 17.46-18.71 18.09-19.26 18.47-20.01 18.85-20.75 18.85-21.68ZM60.18-34.38L60.18-34.38Q59.08-25.78 58.3-17.27 57.52-8.76 56.81-0.15L56.81-0.15 46.8 0.59 47.24-3.17Q46.75-2.61 46.1-2.2 45.46-1.78 44.72-1.53 43.99-1.27 43.21-1.16 42.43-1.05 41.72-1.07L41.72-1.07Q40.06-1.1 38.6-1.72 37.13-2.34 35.91-3.38 34.69-4.42 33.71-5.8 32.74-7.18 32.07-8.7 31.39-10.23 31.04-11.82 30.69-13.4 30.69-14.89L30.69-14.89Q30.69-17.09 30.77-19.45 30.86-21.8 31.08-24.17 31.3-26.54 31.65-28.86 32-31.18 32.54-33.3L32.54-33.3Q35.52-33.15 38.52-33.03 41.53-32.91 44.5-32.96L44.5-32.96Q43.94-30.83 43.39-28.7 42.84-26.56 42.4-24.4 41.97-22.24 41.7-20.07 41.43-17.9 41.43-15.67L41.43-15.67Q41.43-15.16 41.48-14.21 41.53-13.26 41.73-12.33 41.94-11.4 42.37-10.71 42.8-10.01 43.58-10.01L43.58-10.01Q44.5-10.01 45.24-10.8 45.97-11.6 46.53-12.94 47.09-14.28 47.5-16.04 47.9-17.8 48.18-19.71 48.46-21.63 48.63-23.58 48.8-25.54 48.89-27.26 48.97-28.98 49.01-30.35 49.05-31.71 49.05-32.47L49.05-32.47Q49.05-32.96 49.02-33.42 49-33.89 48.95-34.38L48.95-34.38Q50.53-34.33 52.1-34.3 53.66-34.28 55.25-34.28L55.25-34.28Q56.47-34.28 57.7-34.29 58.93-34.3 60.18-34.38ZM73.14-12.94L83.05-12.94 82.03-2.1 61.47-0.49 62.25-35.35 74.95-35.35 73.14-12.94ZM109.22-12.5L109.22-12.5Q109.22-9.16 108.06-6.73 106.9-4.3 104.89-2.72 102.87-1.15 100.18-0.4 97.48 0.34 94.38 0.34L94.38 0.34Q93.18 0.34 91.75 0.02 90.32-0.29 88.86-0.77 87.39-1.25 86.04-1.79 84.68-2.34 83.64-2.83L83.64-2.83 84.71-12.4Q86.78-11.16 89.31-10.51 91.84-9.86 94.28-9.86L94.28-9.86Q94.74-9.86 95.4-9.9 96.06-9.94 96.66-10.12 97.26-10.3 97.67-10.67 98.09-11.04 98.09-11.72L98.09-11.72Q98.09-12.18 97.8-12.51 97.5-12.84 97.04-13.05 96.57-13.26 95.99-13.37 95.4-13.48 94.84-13.53 94.28-13.57 93.79-13.57 93.3-13.57 93.01-13.57L93.01-13.57Q90.91-13.57 89.19-14.23 87.47-14.89 86.24-16.1 85-17.31 84.32-19.03 83.64-20.75 83.64-22.85L83.64-22.85Q83.64-25.73 84.79-28.02 85.95-30.3 87.9-31.9 89.84-33.5 92.35-34.35 94.87-35.21 97.55-35.21L97.55-35.21Q98.75-35.21 100.02-35.12 101.29-35.03 102.54-34.81 103.8-34.59 105-34.25 106.19-33.91 107.27-33.4L107.27-33.4 106.34-23.49Q104.68-24.05 102.86-24.43 101.04-24.8 99.31-24.8L99.31-24.8Q98.99-24.8 98.49-24.79 97.99-24.78 97.44-24.72 96.89-24.66 96.33-24.54 95.77-24.41 95.33-24.21 94.89-24 94.62-23.66 94.35-23.32 94.38-22.85L94.38-22.85Q94.4-22.31 94.78-22.02 95.16-21.73 95.76-21.59 96.35-21.46 97.08-21.46 97.8-21.46 98.5-21.5 99.21-21.53 99.82-21.57 100.43-21.61 100.82-21.58L100.82-21.58Q102.78-21.46 104.34-20.75 105.9-20.04 106.99-18.87 108.07-17.7 108.65-16.08 109.22-14.45 109.22-12.5ZM138.03-19.73L138.03-19.73Q138.03-17.6 137.73-15.48L137.73-15.48Q133.56-15.21 129.43-14.61 125.31-14.01 121.18-13.43L121.18-13.43Q121.82-11.67 123.17-10.62 124.53-9.57 126.41-9.57L126.41-9.57Q127.38-9.57 128.54-9.94 129.7-10.3 130.85-10.85 132-11.4 133.05-12.04 134.1-12.67 134.85-13.18L134.85-13.18 133.68-2.1Q132.73-1.37 131.62-0.85 130.51-0.34 129.31-0.02 128.12 0.29 126.89 0.44 125.67 0.59 124.5 0.59L124.5 0.59Q122.08 0.59 120.08-0.07 118.08-0.73 116.46-1.92 114.83-3.1 113.61-4.71 112.39-6.32 111.59-8.23 110.78-10.13 110.37-12.26 109.95-14.38 109.95-16.55L109.95-16.55Q109.95-18.82 110.37-21.09 110.78-23.36 111.62-25.46 112.47-27.56 113.75-29.36 115.03-31.15 116.74-32.5 118.45-33.84 120.61-34.59 122.77-35.35 125.38-35.35L125.38-35.35Q127.55-35.35 129.35-34.75 131.14-34.16 132.55-33.09 133.95-32.03 134.99-30.57 136.03-29.1 136.7-27.36 137.37-25.61 137.7-23.67 138.03-21.73 138.03-19.73ZM128.26-20.46L128.26-21Q128.26-21.68 128.12-22.4 127.97-23.12 127.64-23.71 127.31-24.29 126.77-24.67 126.24-25.05 125.43-25.05L125.43-25.05Q124.45-25.05 123.71-24.52 122.96-24 122.43-23.21 121.89-22.41 121.55-21.48 121.21-20.56 121.03-19.78L121.03-19.78 128.26-20.46Z" opacity="1" transform="matrix(1,0,0,1,0,0)" fill="#ffffff" class="wordmark-text-0" data-fill-palette-color="primary" id="text-0"></path></svg></g></svg></g></svg></g></svg></g><g><svg viewBox="0 0 244.43135999999993 205.70278839071779" height="205.70278839071779" width="244.43135999999993"><g><svg xmlns="http://www.w3.org/2000/svg" xmlns:xlink="http://www.w3.org/1999/xlink" version="1.1" baseProfile="tiny" x="0" y="0" viewBox="22.130999999999993 58.7802209298745 454.687 382.64477907012554" overflow="inherit" xml:space="preserve" height="205.70278839071779" width="244.43135999999993" class="icon-icon-0" data-fill-palette-color="accent" id="icon-0"><path d="M460.458 273.464c-6.722 0-12.494 4.056-15.011 9.853h-22.146l-14.341-25.444c-1.145-2.03-3.287-3.294-5.617-3.312-0.018 0-0.033 0-0.051 0-2.311 0-4.45 1.227-5.617 3.224l-25.887 44.313-28.596-93.39c-0.89-2.904-3.664-4.812-6.7-4.583-3.029 0.224-5.5 2.515-5.953 5.518l-25.758 170.883L276.265 64.701c-0.298-3.298-3.026-5.846-6.337-5.919-3.327-0.077-6.148 2.354-6.591 5.635l-30.573 226.937-23.924-47.45c-1.217-2.415-3.803-3.826-6.491-3.541-2.689 0.284-4.923 2.202-5.61 4.817l-25.473 96.978-28.562-182.312c-0.481-3.072-3.07-5.375-6.177-5.494-3.111-0.123-5.865 1.977-6.581 5.003l-29.316 123.961H53.501c-2.516-5.797-8.289-9.853-15.011-9.853-9.035 0-16.359 7.324-16.359 16.358 0 9.035 7.325 16.359 16.359 16.359 6.722 0 12.495-4.057 15.011-9.854h52.274c3.016 0 5.637-2.073 6.331-5.009l22.873-96.715 28.247 180.303c0.477 3.043 3.022 5.334 6.098 5.49 3.073 0.16 5.839-1.865 6.622-4.844l29.012-110.449 25.641 50.854c1.284 2.546 4.077 3.961 6.887 3.486 2.812-0.473 4.988-2.721 5.369-5.547l25.654-190.412 28.174 312.021c0.296 3.279 2.995 5.82 6.286 5.918 0.065 0.002 0.131 0.003 0.195 0.003 3.207 0 5.95-2.346 6.431-5.536l29.542-195.99 24.559 80.205c0.756 2.47 2.902 4.258 5.469 4.557 2.572 0.3 5.065-0.95 6.369-3.181l27.659-47.346 10.641 18.88c1.152 2.046 3.318 3.312 5.667 3.312h25.947c2.516 5.797 8.289 9.854 15.011 9.854 9.035 0 16.359-7.324 16.359-16.359C476.817 280.788 469.493 273.464 460.458 273.464z" fill="#ffffff" data-fill-palette-color="accent"></path></svg></g></svg></g></svg></g></svg></g><defs></defs></svg><rect width="395.52" height="122.4381812768919" fill="none" stroke="none" visibility="hidden"></rect></g></svg></g></svg>